<?xml version="1.0" encoding="utf-8"?>
<!-- Generator: Adobe Illustrator 25.4.0, SVG Export Plug-In . SVG Version: 6.00 Build 0)  -->
<svg version="1.1" id="Layer_1" xmlns="http://www.w3.org/2000/svg" xmlns:xlink="http://www.w3.org/1999/xlink" x="0px" y="0px"
	 viewBox="0 0 180 37" style="enable-background:new 0 0 180 37;" xml:space="preserve">
<style type="text/css">
	.st0{clip-path:url(#SVGID_00000125563528683278339050000018023503090098365353_);}
	
		.st1{clip-path:url(#SVGID_00000007393800066945830850000002858801840219531453_);fill:url(#SVGID_00000148621792385759067740000003968950593832875953_);}
	
		.st2{clip-path:url(#SVGID_00000031191376125904912890000013958312569638903435_);fill:url(#SVGID_00000032615059617659473910000012207980963519225478_);}
	
		.st3{clip-path:url(#SVGID_00000031915665771492073310000015334122159868197775_);fill:url(#SVGID_00000027567472577652129190000017737120226079291299_);}
	.st4{clip-path:url(#SVGID_00000008827501067677475820000002167849446150704554_);fill:#27BDBE;}
	.st5{filter:url(#Adobe_OpacityMaskFilter);}
	.st6{clip-path:url(#SVGID_00000008827501067677475820000002167849446150704554_);}
	.st7{enable-background:new    ;}
	.st8{clip-path:url(#SVGID_00000099635179708636479080000011112226834738250127_);}
	.st9{filter:url(#Adobe_OpacityMaskFilter_00000119080825517386515160000002865071073789397664_);}
	
		.st10{clip-path:url(#SVGID_00000005948199298093135320000012652559346270830243_);mask:url(#SVGID_00000079488331101043831780000009723554402336090814_);fill:url(#SVGID_00000011725258657705573090000014415477869180770723_);}
	.st11{clip-path:url(#SVGID_00000065050134781769483890000016802248866842507452_);}
	
		.st12{clip-path:url(#SVGID_00000154417556860005446280000000082763662993412259_);fill:url(#SVGID_00000085239518758043416070000001857430933550322602_);}
	.st13{filter:url(#Adobe_OpacityMaskFilter_00000117658470533215732830000009746757648818185363_);}
	.st14{clip-path:url(#SVGID_00000103257727282877010820000017538266999822607035_);}
	.st15{filter:url(#Adobe_OpacityMaskFilter_00000014618008228361871630000002993482493326554558_);}
	
		.st16{clip-path:url(#SVGID_00000120531110804977890720000008725224180540642233_);mask:url(#SVGID_00000160148927487141116390000017215502194093923733_);fill:url(#SVGID_00000008871025452896778650000006967754758194674074_);}
	.st17{clip-path:url(#SVGID_00000039829999612294419910000006070686445098327217_);}
	
		.st18{clip-path:url(#SVGID_00000026848943254252588640000015533443444603338680_);fill:url(#SVGID_00000034065990138123013830000012668744389000429710_);}
	.st19{filter:url(#Adobe_OpacityMaskFilter_00000161599822060843041140000014218111467161921675_);}
	.st20{clip-path:url(#SVGID_00000178919300422101823150000010541066035628155524_);}
	.st21{filter:url(#Adobe_OpacityMaskFilter_00000143584764483808272630000018329590030520952469_);}
	
		.st22{clip-path:url(#SVGID_00000090288702107703365980000009592211014138560143_);mask:url(#SVGID_00000131343287939695822380000007696495811318451130_);fill:url(#SVGID_00000178910988437346369420000008797151603404470719_);}
	.st23{clip-path:url(#SVGID_00000022557184177572884830000011072132283398859166_);}
	
		.st24{clip-path:url(#SVGID_00000152947994112808653360000018023410492210567561_);fill:url(#SVGID_00000050628326844535531820000007143402475219519920_);}
	.st25{font-family:'SugoProDisplayTrial-Light';}
	.st26{font-size:18.2207px;}
	.st27{fill:#808285;}
</style>
<g>
	<g>
		<defs>
			<rect id="SVGID_1_" x="42.21" y="1.64" width="95.59" height="33.73"/>
		</defs>
		<clipPath id="SVGID_00000101077991686524540780000007591830232964357257_">
			<use xlink:href="#SVGID_1_"  style="overflow:visible;"/>
		</clipPath>
		<g style="clip-path:url(#SVGID_00000101077991686524540780000007591830232964357257_);">
			<defs>
				<path id="SVGID_00000089537724557286038700000018073877697926716079_" d="M49.55,3.03l-1.53,2.65c-1.37-0.73-2.32-1.8-2.87-2.55
					C44.9,2.8,44.37,2.9,44.28,3.31c-0.78,3.44,0.24,5.9,0.98,7.14l-2.61,4.52c-0.24,0.41-0.36,0.88-0.36,1.34v0.03
					c0,0.46,0.12,0.92,0.36,1.34l5.59,9.67c0.85,1.47,3.01,1.32,3.64-0.25l9.36-23.07c0.46-1.13-0.37-2.35-1.59-2.35h-7.77
					C50.92,1.68,50.03,2.2,49.55,3.03z"/>
			</defs>
			<clipPath id="SVGID_00000029026388924368813320000018168337433804684181_">
				<use xlink:href="#SVGID_00000089537724557286038700000018073877697926716079_"  style="overflow:visible;"/>
			</clipPath>
			
				<linearGradient id="SVGID_00000108292595249219763780000002443479275576578951_" gradientUnits="userSpaceOnUse" x1="-87.5188" y1="80.7656" x2="-87.2494" y2="80.7656" gradientTransform="matrix(-75.7882 43.7576 43.7576 75.7882 -10102.7285 -2283.3977)">
				<stop  offset="0" style="stop-color:#108082"/>
				<stop  offset="0.25" style="stop-color:#108082"/>
				<stop  offset="0.55" style="stop-color:#27BDBE"/>
				<stop  offset="1" style="stop-color:#27BDBE"/>
			</linearGradient>
			
				<polygon style="clip-path:url(#SVGID_00000029026388924368813320000018168337433804684181_);fill:url(#SVGID_00000108292595249219763780000002443479275576578951_);" points="
				73.37,21.99 47.06,37.18 30.46,8.42 56.76,-6.77 			"/>
		</g>
		<g style="clip-path:url(#SVGID_00000101077991686524540780000007591830232964357257_);">
			<defs>
				<path id="SVGID_00000047746827875523884610000014413327881657829762_" d="M54.42,1.68c-1.69,0-2.64,1.95-1.6,3.28l15.3,19.64
					c0.75,0.96,2.23,0.86,2.83-0.2l3.88-6.73c0.48-0.84,0.48-1.87,0-2.7l-1.53-2.65c1.31-0.82,2.72-1.11,3.64-1.21
					c0.41-0.05,0.58-0.56,0.28-0.84c-2.59-2.39-5.23-2.75-6.68-2.72l-2.61-4.52c-0.48-0.84-1.38-1.35-2.34-1.35H54.42z"/>
			</defs>
			<clipPath id="SVGID_00000047050389000340196890000001240372654201759639_">
				<use xlink:href="#SVGID_00000047746827875523884610000014413327881657829762_"  style="overflow:visible;"/>
			</clipPath>
			
				<linearGradient id="SVGID_00000005237083921601693900000004858319795462423718_" gradientUnits="userSpaceOnUse" x1="-86.8058" y1="79.2284" x2="-86.5352" y2="79.2284" gradientTransform="matrix(0 -87.5127 -87.5127 0 6998.145 -7571.2485)">
				<stop  offset="0" style="stop-color:#F7941D"/>
				<stop  offset="0.25" style="stop-color:#F7941D"/>
				<stop  offset="0.55" style="stop-color:#FFCB05"/>
				<stop  offset="1" style="stop-color:#FFCB05"/>
			</linearGradient>
			
				<rect x="51.72" y="1.68" style="clip-path:url(#SVGID_00000047050389000340196890000001240372654201759639_);fill:url(#SVGID_00000005237083921601693900000004858319795462423718_);" width="25.87" height="23.98"/>
		</g>
		<g style="clip-path:url(#SVGID_00000101077991686524540780000007591830232964357257_);">
			<defs>
				<path id="SVGID_00000137845380811462577990000014358028172466963875_" d="M71.48,17.41l-24.66,3.33
					c-1.2,0.16-1.85,1.45-1.25,2.48l3.88,6.53c0.48,0.81,1.38,1.31,2.34,1.31h3.06c0.05,1.5-0.39,2.82-0.77,3.65
					c-0.15,0.32,0.11,0.66,0.44,0.66h0.01c0.05,0,0.09-0.01,0.14-0.02c3.36-1.01,4.99-3.06,5.7-4.29h5.22c0.97,0,1.86-0.5,2.34-1.31
					l5.59-9.39c0.8-1.34-0.23-2.96-1.75-2.96C71.67,17.39,71.58,17.4,71.48,17.41"/>
			</defs>
			<clipPath id="SVGID_00000084525423328104434070000010616422773954057377_">
				<use xlink:href="#SVGID_00000137845380811462577990000014358028172466963875_"  style="overflow:visible;"/>
			</clipPath>
			
				<linearGradient id="SVGID_00000093138256063981786940000016102352853421236357_" gradientUnits="userSpaceOnUse" x1="-85.8463" y1="80.5828" x2="-85.5768" y2="80.5828" gradientTransform="matrix(75.7875 43.7572 43.7572 -75.7875 3026.9343 9882.3262)">
				<stop  offset="0" style="stop-color:#B10069"/>
				<stop  offset="0.25" style="stop-color:#B10069"/>
				<stop  offset="0.55" style="stop-color:#EC008C"/>
				<stop  offset="1" style="stop-color:#EC008C"/>
			</linearGradient>
			
				<polygon style="clip-path:url(#SVGID_00000084525423328104434070000010616422773954057377_);fill:url(#SVGID_00000093138256063981786940000016102352853421236357_);" points="
				52.3,4.14 82.33,21.47 66.98,48.07 36.95,30.73 			"/>
		</g>
		<g style="clip-path:url(#SVGID_00000101077991686524540780000007591830232964357257_);">
			<defs>
				<rect id="SVGID_00000150076839197789470840000002794135444917323448_" x="42.29" y="1.68" width="95.66" height="33.68"/>
			</defs>
			<clipPath id="SVGID_00000021823020014995858930000009663435249940587919_">
				<use xlink:href="#SVGID_00000150076839197789470840000002794135444917323448_"  style="overflow:visible;"/>
			</clipPath>
			<path style="clip-path:url(#SVGID_00000021823020014995858930000009663435249940587919_);fill:#27BDBE;" d="M42.25,15.83
				c-0.11,0.61,0,1.25,0.32,1.81l5.59,9.67c0.85,1.47,3.01,1.32,3.64-0.25l3.24-7.99L42.25,15.83z"/>
			<defs>
				<filter id="Adobe_OpacityMaskFilter" filterUnits="userSpaceOnUse" x="40.83" y="14.82" width="18.34" height="18.29">
					<feFlood  style="flood-color:white;flood-opacity:1" result="back"/>
					<feBlend  in="SourceGraphic" in2="back" mode="normal"/>
				</filter>
			</defs>
			
				<mask maskUnits="userSpaceOnUse" x="40.83" y="14.82" width="18.34" height="18.29" id="SVGID_00000103257752656644730530000004708720466683294614_">
				<g class="st5">
					<g>
						<defs>
							<rect id="SVGID_00000111894172402408600630000018134077549455054223_" x="45.34" y="19.16" width="9.66" height="9.17"/>
						</defs>
						
							<clipPath id="SVGID_00000141441008433273245480000008390851289773222318_" style="clip-path:url(#SVGID_00000021823020014995858930000009663435249940587919_);">
							<use xlink:href="#SVGID_00000111894172402408600630000018134077549455054223_"  style="overflow:visible;"/>
						</clipPath>
						<g class="st7">
							<g>
								<defs>
									<path id="SVGID_00000160189031395555686060000018081325473339465131_" d="M51.8,27.06l3.21-7.9l-8.19,1.14
										c-1.18,0.16-1.82,1.44-1.28,2.48l2.62,4.54C49,28.78,51.16,28.63,51.8,27.06"/>
								</defs>
								
									<clipPath id="SVGID_00000112633814220986346170000008347620058968108177_" style="clip-path:url(#SVGID_00000141441008433273245480000008390851289773222318_);">
									<use xlink:href="#SVGID_00000160189031395555686060000018081325473339465131_"  style="overflow:visible;"/>
								</clipPath>
								<defs>
									
										<filter id="Adobe_OpacityMaskFilter_00000170264019556858834630000017200596681677620876_" filterUnits="userSpaceOnUse" x="40.83" y="14.82" width="18.34" height="18.29">
										<feFlood  style="flood-color:white;flood-opacity:1" result="back"/>
										<feBlend  in="SourceGraphic" in2="back" mode="normal"/>
									</filter>
								</defs>
								
									<mask maskUnits="userSpaceOnUse" x="40.83" y="14.82" width="18.34" height="18.29" id="SVGID_00000103257752656644730530000004708720466683294614_">
									<g style="filter:url(#Adobe_OpacityMaskFilter_00000170264019556858834630000017200596681677620876_);">
										<g class="st7">
										</g>
									</g>
								</mask>
								
									<linearGradient id="SVGID_00000036963052927551071320000005275474856780227997_" gradientUnits="userSpaceOnUse" x1="-89.2126" y1="81.1787" x2="-88.9432" y2="81.1787" gradientTransform="matrix(-32.1728 18.5744 18.5744 32.1728 -4322.231 -934.0764)">
									<stop  offset="0" style="stop-color:#FFFFFF"/>
									<stop  offset="0.05" style="stop-color:#FFFFFF"/>
									<stop  offset="0.95" style="stop-color:#000000"/>
									<stop  offset="1" style="stop-color:#000000"/>
								</linearGradient>
								
									<polygon style="clip-path:url(#SVGID_00000112633814220986346170000008347620058968108177_);mask:url(#SVGID_00000103257752656644730530000004708720466683294614_);fill:url(#SVGID_00000036963052927551071320000005275474856780227997_);" points="
									59.17,26.37 47.5,33.11 40.83,21.56 52.5,14.82 								"/>
							</g>
						</g>
					</g>
				</g>
			</mask>
			<g style="clip-path:url(#SVGID_00000021823020014995858930000009663435249940587919_);">
				<g>
					<defs>
						<rect id="SVGID_00000095312351161252344540000012401066194753253299_" x="45.25" y="19.2" width="9.7" height="9.16"/>
					</defs>
					<clipPath id="SVGID_00000108295608723771734820000007193707520288523690_">
						<use xlink:href="#SVGID_00000095312351161252344540000012401066194753253299_"  style="overflow:visible;"/>
					</clipPath>
					<g style="clip-path:url(#SVGID_00000108295608723771734820000007193707520288523690_);">
						<defs>
							<path id="SVGID_00000100342685709600623800000006794615633968629892_" d="M51.8,27.06l3.21-7.9l-8.19,1.14
								c-1.18,0.16-1.82,1.44-1.28,2.48l2.62,4.54C49,28.78,51.16,28.63,51.8,27.06"/>
						</defs>
						<clipPath id="SVGID_00000031176625825555280070000009036125854087537037_">
							<use xlink:href="#SVGID_00000100342685709600623800000006794615633968629892_"  style="overflow:visible;"/>
						</clipPath>
						
							<linearGradient id="SVGID_00000177485744136333849060000008515418092657675418_" gradientUnits="userSpaceOnUse" x1="-89.2126" y1="81.1787" x2="-88.9431" y2="81.1787" gradientTransform="matrix(-32.1728 18.5744 18.5744 32.1728 -4322.2305 -934.0763)">
							<stop  offset="0" style="stop-color:#851F83"/>
							<stop  offset="0.05" style="stop-color:#851F83"/>
							<stop  offset="0.95" style="stop-color:#851F83"/>
							<stop  offset="1" style="stop-color:#851F83"/>
						</linearGradient>
						
							<polygon style="clip-path:url(#SVGID_00000031176625825555280070000009036125854087537037_);fill:url(#SVGID_00000177485744136333849060000008515418092657675418_);" points="
							59.17,26.37 47.5,33.11 40.83,21.56 52.5,14.82 						"/>
					</g>
				</g>
			</g>
			<defs>
				
					<filter id="Adobe_OpacityMaskFilter_00000100350776818352727760000007960168910114544286_" filterUnits="userSpaceOnUse" x="59.19" y="11.72" width="19.01" height="18.68">
					<feFlood  style="flood-color:white;flood-opacity:1" result="back"/>
					<feBlend  in="SourceGraphic" in2="back" mode="normal"/>
				</filter>
			</defs>
			
				<mask maskUnits="userSpaceOnUse" x="59.19" y="11.72" width="19.01" height="18.68" id="SVGID_00000018221679319368148450000002460307673023066538_">
				<g style="filter:url(#Adobe_OpacityMaskFilter_00000100350776818352727760000007960168910114544286_);">
					<g>
						<defs>
							<rect id="SVGID_00000140713435955268892780000018265017514877296768_" x="63.03" y="16.84" width="10.76" height="8.38"/>
						</defs>
						
							<clipPath id="SVGID_00000168110044591238146410000004528767807929699760_" style="clip-path:url(#SVGID_00000021823020014995858930000009663435249940587919_);">
							<use xlink:href="#SVGID_00000140713435955268892780000018265017514877296768_"  style="overflow:visible;"/>
						</clipPath>
						<g class="st7">
							<g>
								<defs>
									<path id="SVGID_00000146501885159043259510000011122853155840145594_" d="M71.48,16.86l-8.45,1.17l5.08,6.52
										c0.73,0.94,2.16,0.86,2.79-0.13l2.62-4.54C74.36,18.43,73.15,16.63,71.48,16.86"/>
								</defs>
								
									<clipPath id="SVGID_00000025444611309918774410000017276816928913237681_" style="clip-path:url(#SVGID_00000168110044591238146410000004528767807929699760_);">
									<use xlink:href="#SVGID_00000146501885159043259510000011122853155840145594_"  style="overflow:visible;"/>
								</clipPath>
								<defs>
									
										<filter id="Adobe_OpacityMaskFilter_00000055684585381703010490000001821256090319222167_" filterUnits="userSpaceOnUse" x="59.19" y="11.72" width="19.01" height="18.68">
										<feFlood  style="flood-color:white;flood-opacity:1" result="back"/>
										<feBlend  in="SourceGraphic" in2="back" mode="normal"/>
									</filter>
								</defs>
								
									<mask maskUnits="userSpaceOnUse" x="59.19" y="11.72" width="19.01" height="18.68" id="SVGID_00000018221679319368148450000002460307673023066538_">
									<g style="filter:url(#Adobe_OpacityMaskFilter_00000055684585381703010490000001821256090319222167_);">
										<g class="st7">
										</g>
									</g>
								</mask>
								
									<linearGradient id="SVGID_00000173872039980824876040000008898445556868923036_" gradientUnits="userSpaceOnUse" x1="-85.2726" y1="80.8088" x2="-85.0032" y2="80.8088" gradientTransform="matrix(32.1725 18.5748 18.5748 -32.1725 1305.5603 4201.5947)">
									<stop  offset="0" style="stop-color:#FFFFFF"/>
									<stop  offset="0.05" style="stop-color:#FFFFFF"/>
									<stop  offset="0.95" style="stop-color:#000000"/>
									<stop  offset="1" style="stop-color:#000000"/>
								</linearGradient>
								
									<polygon style="clip-path:url(#SVGID_00000025444611309918774410000017276816928913237681_);mask:url(#SVGID_00000018221679319368148450000002460307673023066538_);fill:url(#SVGID_00000173872039980824876040000008898445556868923036_);" points="
									65.86,11.72 78.2,18.85 71.53,30.4 59.19,23.28 								"/>
							</g>
						</g>
					</g>
				</g>
			</mask>
			<g style="clip-path:url(#SVGID_00000021823020014995858930000009663435249940587919_);">
				<g>
					<defs>
						<rect id="SVGID_00000113313235038380542010000004547096184942553479_" x="63.04" y="16.77" width="10.78" height="8.35"/>
					</defs>
					<clipPath id="SVGID_00000132769570247358839200000013809557854034538170_">
						<use xlink:href="#SVGID_00000113313235038380542010000004547096184942553479_"  style="overflow:visible;"/>
					</clipPath>
					<g style="clip-path:url(#SVGID_00000132769570247358839200000013809557854034538170_);">
						<defs>
							<path id="SVGID_00000049904365128648543320000011780545887001937301_" d="M71.48,16.86l-8.45,1.17l5.08,6.52
								c0.73,0.94,2.16,0.86,2.79-0.13l2.62-4.54C74.36,18.43,73.15,16.63,71.48,16.86"/>
						</defs>
						<clipPath id="SVGID_00000094598051266995907650000011826753603815693458_">
							<use xlink:href="#SVGID_00000049904365128648543320000011780545887001937301_"  style="overflow:visible;"/>
						</clipPath>
						
							<linearGradient id="SVGID_00000155124274537506092980000011284989920441968546_" gradientUnits="userSpaceOnUse" x1="-85.2726" y1="80.8088" x2="-85.0031" y2="80.8088" gradientTransform="matrix(32.1725 18.5748 18.5748 -32.1725 1305.5596 4201.5947)">
							<stop  offset="0" style="stop-color:#C4122F"/>
							<stop  offset="0.05" style="stop-color:#C4122F"/>
							<stop  offset="0.95" style="stop-color:#C4122F"/>
							<stop  offset="1" style="stop-color:#C4122F"/>
						</linearGradient>
						
							<polygon style="clip-path:url(#SVGID_00000094598051266995907650000011826753603815693458_);fill:url(#SVGID_00000155124274537506092980000011284989920441968546_);" points="
							65.86,11.72 78.2,18.85 71.53,30.4 59.19,23.28 						"/>
					</g>
				</g>
			</g>
			<defs>
				
					<filter id="Adobe_OpacityMaskFilter_00000008834434663055129720000018412498312948979093_" filterUnits="userSpaceOnUse" x="51.72" y="1.68" width="9.7" height="10.01">
					<feFlood  style="flood-color:white;flood-opacity:1" result="back"/>
					<feBlend  in="SourceGraphic" in2="back" mode="normal"/>
				</filter>
			</defs>
			
				<mask maskUnits="userSpaceOnUse" x="51.72" y="1.68" width="9.7" height="10.01" id="SVGID_00000088844656217490041120000015224901830391049148_">
				<g style="filter:url(#Adobe_OpacityMaskFilter_00000008834434663055129720000018412498312948979093_);">
					<g>
						<defs>
							<rect id="SVGID_00000135670408889315729620000005433257703544931261_" x="52.38" y="1.64" width="8.91" height="10.01"/>
						</defs>
						
							<clipPath id="SVGID_00000139260571235431998650000014909473975825314217_" style="clip-path:url(#SVGID_00000021823020014995858930000009663435249940587919_);">
							<use xlink:href="#SVGID_00000135670408889315729620000005433257703544931261_"  style="overflow:visible;"/>
						</clipPath>
						<g class="st7">
							<g>
								<defs>
									<path id="SVGID_00000105387239277596242400000012035706077481761721_" d="M52.81,4.92l5.24,6.73l3.11-7.66
										c0.45-1.1-0.34-2.29-1.5-2.35h-5.24C52.72,1.64,51.77,3.59,52.81,4.92"/>
								</defs>
								
									<clipPath id="SVGID_00000157267344554832054490000016826649636858485136_" style="clip-path:url(#SVGID_00000139260571235431998650000014909473975825314217_);">
									<use xlink:href="#SVGID_00000105387239277596242400000012035706077481761721_"  style="overflow:visible;"/>
								</clipPath>
								<defs>
									
										<filter id="Adobe_OpacityMaskFilter_00000133520507596480625500000016318511548492469890_" filterUnits="userSpaceOnUse" x="51.77" y="1.64" width="9.84" height="10.01">
										<feFlood  style="flood-color:white;flood-opacity:1" result="back"/>
										<feBlend  in="SourceGraphic" in2="back" mode="normal"/>
									</filter>
								</defs>
								
									<mask maskUnits="userSpaceOnUse" x="51.77" y="1.64" width="9.84" height="10.01" id="SVGID_00000088844656217490041120000015224901830391049148_">
									<g style="filter:url(#Adobe_OpacityMaskFilter_00000133520507596480625500000016318511548492469890_);">
										<g class="st7">
										</g>
									</g>
								</mask>
								
									<linearGradient id="SVGID_00000064324622302479895590000010462665234650774690_" gradientUnits="userSpaceOnUse" x1="-87.529" y1="77.5934" x2="-87.2595" y2="77.5934" gradientTransform="matrix(-4.719000e-04 -37.1498 -37.1498 4.719000e-04 2939.2283 -3240.0684)">
									<stop  offset="0" style="stop-color:#FFFFFF"/>
									<stop  offset="0.05" style="stop-color:#FFFFFF"/>
									<stop  offset="0.95" style="stop-color:#000000"/>
									<stop  offset="1" style="stop-color:#000000"/>
								</linearGradient>
								
									<rect x="51.77" y="1.64" style="clip-path:url(#SVGID_00000157267344554832054490000016826649636858485136_);mask:url(#SVGID_00000088844656217490041120000015224901830391049148_);fill:url(#SVGID_00000064324622302479895590000010462665234650774690_);" width="9.84" height="10.01"/>
							</g>
						</g>
					</g>
				</g>
			</mask>
			<g style="clip-path:url(#SVGID_00000021823020014995858930000009663435249940587919_);">
				<g>
					<defs>
						<rect id="SVGID_00000114760804595256964310000016324236716077161863_" x="52.26" y="1.68" width="8.89" height="9.97"/>
					</defs>
					<clipPath id="SVGID_00000072239527836689098310000000169215457570383797_">
						<use xlink:href="#SVGID_00000114760804595256964310000016324236716077161863_"  style="overflow:visible;"/>
					</clipPath>
					<g style="clip-path:url(#SVGID_00000072239527836689098310000000169215457570383797_);">
						<defs>
							<path id="SVGID_00000073003296114229380170000009403809199972242599_" d="M52.81,4.96l5.24,6.73l3.11-7.66
								c0.45-1.1-0.34-2.29-1.5-2.35h-5.24C52.73,1.68,51.77,3.63,52.81,4.96"/>
						</defs>
						<clipPath id="SVGID_00000131350588278251212140000017254091310481769358_">
							<use xlink:href="#SVGID_00000073003296114229380170000009403809199972242599_"  style="overflow:visible;"/>
						</clipPath>
						
							<linearGradient id="SVGID_00000121258303159387131850000017893105093509155519_" gradientUnits="userSpaceOnUse" x1="-87.529" y1="77.5968" x2="-87.2606" y2="77.5968" gradientTransform="matrix(-4.719000e-04 -37.1498 -37.1498 4.719000e-04 2939.229 -3240.0681)">
							<stop  offset="0" style="stop-color:#6BA03C"/>
							<stop  offset="0.05" style="stop-color:#6BA03C"/>
							<stop  offset="0.95" style="stop-color:#6BA03C"/>
							<stop  offset="1" style="stop-color:#6BA03C"/>
						</linearGradient>
						
							<rect x="51.72" y="1.68" style="clip-path:url(#SVGID_00000131350588278251212140000017254091310481769358_);fill:url(#SVGID_00000121258303159387131850000017893105093509155519_);" width="9.7" height="9.97"/>
					</g>
				</g>
			</g>
			<g style="clip-path:url(#SVGID_00000021823020014995858930000009663435249940587919_);">
				<text transform="matrix(1 0 0 1 82.2582 21.1657)"><tspan x="0" y="0" class="st25 st26">KWERR</tspan><tspan x="44.31" y="0" class="st25 st26">I</tspan><tspan x="48.31" y="0" class="st25 st26">E</tspan></text>
			</g>
		</g>
		<g style="clip-path:url(#SVGID_00000101077991686524540780000007591830232964357257_);">
			<g>
				<path class="st27" d="M85.86,28.44c0,0.3-0.06,0.55-0.17,0.75c-0.12,0.2-0.27,0.35-0.47,0.45c-0.2,0.1-0.43,0.15-0.69,0.15
					c-0.26,0-0.48-0.05-0.68-0.15c-0.2-0.1-0.35-0.25-0.47-0.45c-0.11-0.2-0.17-0.45-0.17-0.75v-2.47l0.03-0.03h0.16
					c0.09,0,0.14,0.02,0.16,0.06c0.02,0.04,0.03,0.11,0.03,0.19v2.25c0,0.33,0.08,0.59,0.25,0.76c0.17,0.17,0.4,0.26,0.69,0.26
					s0.52-0.09,0.69-0.26s0.25-0.43,0.25-0.76v-2.48c0.02-0.01,0.05-0.01,0.09-0.01s0.07,0,0.1,0c0.04,0,0.08,0,0.11,0
					c0.03,0,0.06,0.01,0.09,0.01V28.44z"/>
				<path class="st27" d="M88.3,25.95c0.03-0.01,0.07-0.01,0.11-0.01s0.08,0,0.12,0c0.04,0,0.08,0,0.13,0s0.08,0.01,0.12,0.01
					l-0.11,0.47h-0.04c0,0.11,0.01,0.23,0.01,0.36c0.01,0.13,0.01,0.26,0.01,0.4s0.01,0.27,0.01,0.39v2.14
					c-0.04,0.01-0.07,0.01-0.1,0.01s-0.06,0-0.09,0c-0.03,0-0.05,0-0.08,0s-0.06-0.01-0.09-0.01V25.95z M89.03,27.18
					c-0.07-0.13-0.14-0.26-0.2-0.38s-0.12-0.25-0.18-0.37l-0.18-0.24l0.32-0.23l1.38,2.54c0.07,0.13,0.14,0.26,0.2,0.39
					s0.12,0.26,0.18,0.38l0.18,0.19l-0.32,0.27L89.03,27.18z M90.88,25.96v3.75c-0.03,0.01-0.07,0.01-0.1,0.01
					c-0.04,0-0.08,0-0.13,0c-0.05,0-0.1,0-0.14,0c-0.04,0-0.07-0.01-0.11-0.01l0.11-0.46h0.04c-0.01-0.13-0.01-0.27-0.02-0.41
					c-0.01-0.14-0.01-0.28-0.01-0.42c0-0.14,0-0.27,0-0.4v-1.84c0-0.08,0.01-0.15,0.03-0.19c0.02-0.04,0.08-0.06,0.16-0.06h0.13
					L90.88,25.96z"/>
				<path class="st27" d="M93.39,25.95c0.02-0.01,0.05-0.01,0.08-0.01s0.07,0,0.1,0c0.04,0,0.07,0,0.11,0s0.06,0.01,0.09,0.01v3.76
					c-0.03,0.01-0.06,0.01-0.09,0.01s-0.07,0-0.11,0c-0.04,0-0.07,0-0.1,0s-0.06-0.01-0.08-0.01V25.95z"/>
				<path class="st27" d="M96.67,29.72c-0.03,0.01-0.06,0.01-0.09,0.01c-0.03,0-0.07,0-0.11,0c-0.04,0-0.07,0-0.1,0
					c-0.03,0-0.06-0.01-0.09-0.01v-3.73l0.03-0.03h0.35v0.31c0,0.14,0,0.27,0,0.41c0,0.14,0,0.27,0,0.41V29.72z M98.38,25.95
					c0.01,0.02,0.02,0.05,0.02,0.08c0,0.03,0.01,0.06,0.01,0.08c0,0.06-0.02,0.11-0.06,0.14c-0.04,0.03-0.1,0.04-0.18,0.04h-0.89
					c-0.16,0-0.3,0-0.43-0.01s-0.23-0.01-0.33-0.02v-0.32H98.38z M98.11,27.64c0.01,0.03,0.01,0.06,0.01,0.09s0,0.06,0,0.08
					c0,0.02,0,0.05,0,0.08s-0.01,0.06-0.01,0.09h-1.13c-0.06,0-0.13,0-0.22,0c-0.08,0-0.17,0-0.25,0v-0.33c0.08,0,0.16,0,0.25,0
					c0.08,0,0.16,0,0.22,0H98.11z"/>
				<path class="st27" d="M100.5,25.95c0.02-0.01,0.05-0.01,0.08-0.01s0.07,0,0.1,0c0.04,0,0.07,0,0.11,0s0.06,0.01,0.09,0.01v3.76
					c-0.03,0.01-0.06,0.01-0.09,0.01s-0.07,0-0.11,0c-0.04,0-0.07,0-0.1,0s-0.06-0.01-0.08-0.01V25.95z"/>
				<path class="st27" d="M103.39,25.99l0.03-0.03h0.34v0.32c0,0.08,0,0.14,0,0.18c0,0.04,0,0.1,0,0.17v2.57c0,0.04,0,0.07,0,0.1
					s0,0.06,0,0.1v0.33h-0.15c-0.07,0-0.12-0.02-0.16-0.07c-0.04-0.05-0.06-0.11-0.06-0.19V25.99z M105.54,25.95
					c0.01,0.03,0.01,0.06,0.01,0.08s0,0.05,0,0.07c0,0.02,0,0.05,0,0.08c0,0.03-0.01,0.07-0.02,0.1h-1.42c-0.04,0-0.09,0-0.14,0
					c-0.05,0-0.1,0-0.16,0c-0.06,0-0.11,0-0.16,0v-0.33H105.54z M105.26,27.64c0,0.03,0.01,0.06,0.01,0.09s0,0.06,0,0.08
					c0,0.02,0,0.05,0,0.08s-0.01,0.06-0.01,0.09h-1.16c-0.04,0-0.09,0-0.14,0c-0.05,0-0.1,0-0.16,0c-0.06,0-0.11,0-0.16,0v-0.33
					c0.05,0,0.11,0,0.16,0c0.05,0,0.11,0,0.16,0c0.05,0,0.1,0,0.14,0H105.26z M105.62,29.37c0,0.14-0.02,0.23-0.06,0.27
					c-0.04,0.05-0.11,0.07-0.2,0.07h-1.73V29.4c0.07-0.01,0.14-0.01,0.21-0.02c0.07,0,0.16-0.01,0.26-0.01H105.62z"/>
				<path class="st27" d="M110.48,27.84c0,0.21-0.01,0.42-0.04,0.62c-0.03,0.2-0.08,0.38-0.16,0.55c-0.08,0.17-0.2,0.32-0.36,0.46
					c-0.08,0.07-0.17,0.12-0.28,0.16c-0.11,0.04-0.22,0.07-0.33,0.09c-0.11,0.02-0.22,0.03-0.31,0.03c-0.14,0-0.27,0-0.37,0
					c-0.1,0-0.21,0-0.32-0.01s-0.25-0.01-0.41-0.01l-0.03-0.03v-3.7l0.03-0.03c0.16-0.01,0.29-0.01,0.41-0.01s0.22,0,0.32,0
					c0.1,0,0.23,0,0.37,0c0.09,0,0.2,0.01,0.31,0.03c0.11,0.02,0.23,0.05,0.33,0.09c0.11,0.04,0.2,0.09,0.28,0.16
					c0.16,0.14,0.27,0.29,0.36,0.46s0.13,0.35,0.16,0.55S110.48,27.62,110.48,27.84z M110.07,27.84c0-0.18-0.01-0.37-0.04-0.55
					c-0.03-0.18-0.08-0.35-0.15-0.51c-0.07-0.15-0.18-0.28-0.33-0.37c-0.14-0.09-0.33-0.14-0.57-0.14c-0.13,0-0.25,0-0.36,0
					s-0.23,0-0.38,0v3.14c0.14,0,0.27,0,0.38,0s0.23,0,0.36,0c0.24,0,0.42-0.05,0.57-0.14c0.14-0.09,0.25-0.22,0.33-0.37
					c0.07-0.15,0.12-0.32,0.15-0.51C110.05,28.2,110.07,28.02,110.07,27.84z"/>
				<path class="st27" d="M115.35,25.95c0.02-0.01,0.05-0.01,0.08-0.01s0.07,0,0.1,0c0.04,0,0.07,0,0.11,0s0.06,0.01,0.09,0.01v3.76
					c-0.03,0.01-0.06,0.01-0.09,0.01s-0.07,0-0.11,0c-0.04,0-0.07,0-0.1,0s-0.06-0.01-0.08-0.01V25.95z"/>
				<path class="st27" d="M118.24,25.95c0.03-0.01,0.07-0.01,0.11-0.01s0.08,0,0.12,0c0.04,0,0.08,0,0.13,0s0.08,0.01,0.12,0.01
					l-0.11,0.47h-0.04c0,0.11,0.01,0.23,0.01,0.36c0.01,0.13,0.01,0.26,0.01,0.4s0.01,0.27,0.01,0.39v2.14
					c-0.04,0.01-0.07,0.01-0.1,0.01s-0.06,0-0.09,0c-0.03,0-0.05,0-0.08,0s-0.06-0.01-0.09-0.01V25.95z M118.97,27.18
					c-0.07-0.13-0.14-0.26-0.2-0.38s-0.12-0.25-0.18-0.37l-0.18-0.24l0.32-0.23l1.38,2.54c0.07,0.13,0.14,0.26,0.2,0.39
					s0.12,0.26,0.18,0.38l0.18,0.19l-0.32,0.27L118.97,27.18z M120.82,25.96v3.75c-0.03,0.01-0.07,0.01-0.1,0.01
					c-0.04,0-0.08,0-0.13,0c-0.05,0-0.1,0-0.14,0c-0.04,0-0.07-0.01-0.11-0.01l0.11-0.46h0.04c-0.01-0.13-0.01-0.27-0.02-0.41
					c-0.01-0.14-0.01-0.28-0.01-0.42c0-0.14,0-0.27,0-0.4v-1.84c0-0.08,0.01-0.15,0.03-0.19c0.02-0.04,0.08-0.06,0.16-0.06h0.13
					L120.82,25.96z"/>
				<path class="st27" d="M123.34,25.95c0.19,0,0.37,0,0.54-0.01s0.34-0.01,0.52-0.01c0.28,0,0.51,0.04,0.67,0.13
					c0.17,0.09,0.29,0.2,0.36,0.35c0.08,0.15,0.11,0.32,0.11,0.51c0,0.14-0.03,0.27-0.09,0.4c-0.06,0.12-0.15,0.22-0.26,0.3
					s-0.25,0.12-0.4,0.14v-0.08c0.15,0,0.3,0.04,0.45,0.13c0.14,0.08,0.26,0.2,0.35,0.35c0.09,0.15,0.14,0.32,0.14,0.52
					c0,0.17-0.04,0.34-0.12,0.5c-0.08,0.16-0.21,0.29-0.39,0.4s-0.44,0.16-0.76,0.16c-0.23,0-0.42,0-0.59-0.01s-0.34-0.01-0.53-0.01
					l-0.03-0.03v-3.7L123.34,25.95z M123.69,29.41c0.13,0,0.27,0,0.4,0c0.14,0,0.27,0,0.4,0c0.17,0,0.31-0.02,0.42-0.07
					s0.19-0.11,0.25-0.19c0.06-0.08,0.1-0.16,0.12-0.25c0.02-0.09,0.03-0.17,0.03-0.25c0-0.1-0.03-0.21-0.08-0.32
					c-0.05-0.12-0.14-0.22-0.27-0.3c-0.13-0.08-0.31-0.13-0.54-0.13h-0.91v-0.34h0.86c0.2,0,0.36-0.03,0.47-0.1
					c0.11-0.07,0.18-0.15,0.22-0.25c0.04-0.1,0.06-0.2,0.06-0.3c0-0.1-0.02-0.2-0.05-0.3c-0.03-0.1-0.1-0.18-0.21-0.25
					c-0.1-0.07-0.26-0.1-0.47-0.1c-0.09,0-0.21,0-0.35,0s-0.26,0-0.36-0.01V29.41z"/>
				<path class="st27" d="M127.71,27.83c0-0.36,0.05-0.68,0.16-0.98s0.27-0.53,0.49-0.71c0.22-0.18,0.49-0.26,0.83-0.26
					c0.25,0,0.47,0.05,0.65,0.15c0.18,0.1,0.34,0.24,0.46,0.42c0.12,0.18,0.21,0.39,0.27,0.62c0.06,0.23,0.09,0.48,0.09,0.75
					c0,0.36-0.05,0.68-0.16,0.98s-0.27,0.53-0.49,0.71c-0.22,0.18-0.49,0.26-0.83,0.26c-0.25,0-0.47-0.05-0.66-0.15
					c-0.18-0.1-0.34-0.24-0.46-0.42s-0.21-0.39-0.27-0.62C127.74,28.35,127.71,28.1,127.71,27.83z M128.12,27.83
					c0,0.18,0.02,0.37,0.05,0.56s0.09,0.36,0.16,0.53c0.08,0.16,0.18,0.29,0.32,0.39c0.14,0.1,0.32,0.15,0.53,0.15
					c0.21,0,0.39-0.05,0.53-0.15c0.14-0.1,0.25-0.23,0.32-0.39c0.08-0.16,0.13-0.34,0.16-0.53s0.05-0.38,0.05-0.56
					s-0.02-0.37-0.05-0.55c-0.03-0.19-0.08-0.36-0.16-0.52c-0.08-0.16-0.18-0.29-0.32-0.39c-0.14-0.1-0.31-0.15-0.53-0.15
					c-0.22,0-0.39,0.05-0.53,0.15c-0.14,0.1-0.25,0.23-0.32,0.39c-0.08,0.16-0.13,0.33-0.16,0.52
					C128.14,27.46,128.12,27.65,128.12,27.83z"/>
				<path class="st27" d="M134.73,25.95c0.01-0.01,0.04-0.01,0.07-0.02c0.03,0,0.06-0.01,0.09-0.01c0.04,0,0.08,0,0.12,0.01
					c0.04,0.01,0.06,0.02,0.08,0.03l0.02,0.03l-1.12,1.79l-0.16,0.16l-1.07,1.76c-0.01,0.01-0.04,0.01-0.08,0.02
					c-0.04,0-0.07,0.01-0.1,0.01c-0.04,0-0.08,0-0.12-0.01c-0.04-0.01-0.07-0.02-0.09-0.03l-0.01-0.03l1.26-2.01l0.16-0.17
					L134.73,25.95z M132.53,26.01c0.04-0.03,0.09-0.06,0.13-0.07s0.09-0.02,0.13-0.02c0.04,0,0.08,0.01,0.12,0.04
					c0.04,0.03,0.08,0.07,0.12,0.13l2.2,3.57c-0.04,0.03-0.09,0.06-0.14,0.07s-0.09,0.02-0.13,0.02c-0.04,0-0.08-0.01-0.12-0.04
					c-0.04-0.03-0.08-0.07-0.12-0.13L132.53,26.01z"/>
			</g>
		</g>
	</g>
</g>
</svg>
