<svg id="Layer_1" data-name="Layer 1" xmlns="http://www.w3.org/2000/svg" xmlns:xlink="http://www.w3.org/1999/xlink" viewBox="0 0 394.79 203.51"><defs><style>.cls-1{fill:none;}.cls-2{clip-path:url(#clip-path);}.cls-3{clip-path:url(#clip-path-2);}.cls-4{fill:url(#linear-gradient);}.cls-5{clip-path:url(#clip-path-3);}.cls-6{fill:url(#linear-gradient-2);}.cls-7{clip-path:url(#clip-path-4);}.cls-8{fill:url(#linear-gradient-3);}.cls-9{fill:#31b7bc;}.cls-10{clip-path:url(#clip-path-6);}.cls-11{clip-path:url(#clip-path-7);}.cls-12{fill:url(#linear-gradient-4);}.cls-13{clip-path:url(#clip-path-8);}.cls-14{clip-path:url(#clip-path-9);}.cls-15{fill:url(#linear-gradient-5);}.cls-16{clip-path:url(#clip-path-10);}.cls-17{clip-path:url(#clip-path-11);}.cls-18{fill:url(#linear-gradient-6);}.cls-19{fill:#1d1d1b;}.cls-20{fill:#878787;}</style><clipPath id="clip-path" transform="translate(28.83 -2.07)"><rect class="cls-1" x="14.77" y="33.27" width="354.73" height="125.16"/></clipPath><clipPath id="clip-path-2" transform="translate(28.83 -2.07)"><path class="cls-1" d="M50.4,33.27a10,10,0,0,0-8.7,5L36,48.09a32.77,32.77,0,0,1-10.67-9.44,1.8,1.8,0,0,0-2.52-.38,1.86,1.86,0,0,0-.68,1c-2.89,12.75.87,21.89,3.6,26.5L16.11,82.61a10.13,10.13,0,0,0-1.34,5v.11a10.23,10.23,0,0,0,1.34,5l20.73,35.9a7.55,7.55,0,0,0,13.53-.94L85.1,42a6.33,6.33,0,0,0-5.88-8.74Z"/></clipPath><linearGradient id="linear-gradient" x1="107.88" y1="-3.67" x2="108.88" y2="-3.67" gradientTransform="translate(9544.51 -237.14) rotate(180) scale(87.51)" gradientUnits="userSpaceOnUse"><stop offset="0" stop-color="#248184"/><stop offset="0.25" stop-color="#248184"/><stop offset="0.55" stop-color="#31b7bc"/><stop offset="1" stop-color="#31b7bc"/></linearGradient><clipPath id="clip-path-3" transform="translate(28.83 -2.07)"><path class="cls-1" d="M60.08,33.27a7.56,7.56,0,0,0-6,12.18l56.82,72.88a6.36,6.36,0,0,0,10.51-.72l14.41-25a10,10,0,0,0,0-10l-5.67-9.82a32.42,32.42,0,0,1,13.52-4.52,1.81,1.81,0,0,0,1.57-2,1.74,1.74,0,0,0-.57-1.1c-9.6-8.88-19.4-10.19-24.78-10.1l-9.66-16.79a10,10,0,0,0-8.69-5Z"/></clipPath><linearGradient id="linear-gradient-2" x1="107.92" y1="-6.72" x2="108.92" y2="-6.72" gradientTransform="translate(715.37 9563.2) rotate(-90) scale(87.51)" gradientUnits="userSpaceOnUse"><stop offset="0" stop-color="#f39200"/><stop offset="0.25" stop-color="#f39200"/><stop offset="0.55" stop-color="#fc0"/><stop offset="1" stop-color="#fc0"/></linearGradient><clipPath id="clip-path-4" transform="translate(28.83 -2.07)"><path class="cls-1" d="M123.4,89.78,31.89,102.5a6.32,6.32,0,0,0-5.41,7.14,6.39,6.39,0,0,0,.79,2.32l14.41,25a10,10,0,0,0,8.69,5H61.71a32.77,32.77,0,0,1-2.86,14,1.8,1.8,0,0,0,.92,2.37,1.83,1.83,0,0,0,.69.16h0a2.35,2.35,0,0,0,.53-.09c12.48-3.87,18.52-11.7,21.13-16.4h19.43a10,10,0,0,0,8.69-5L131,101.1a7.56,7.56,0,0,0-2.77-10.32,7.46,7.46,0,0,0-3.72-1,6.54,6.54,0,0,0-1.08.08"/></clipPath><linearGradient id="linear-gradient-3" x1="105.19" y1="-5.11" x2="106.19" y2="-5.11" gradientTransform="translate(-367.57 -9135.85) rotate(90) scale(87.51)" gradientUnits="userSpaceOnUse"><stop offset="0" stop-color="#b10061"/><stop offset="0.25" stop-color="#b10061"/><stop offset="0.55" stop-color="#e6007e"/><stop offset="1" stop-color="#e6007e"/></linearGradient><clipPath id="clip-path-6" transform="translate(28.83 -2.07)"><rect class="cls-1" x="26.4" y="98.28" width="35.86" height="34.04"/></clipPath><clipPath id="clip-path-7" transform="translate(28.83 -2.07)"><path class="cls-1" d="M50.37,127.61l11.9-29.34-30.39,4.24a6.32,6.32,0,0,0-5.41,7.12,6.57,6.57,0,0,0,.65,2.07l9.72,16.85a7.55,7.55,0,0,0,13.53-.94"/></clipPath><linearGradient id="linear-gradient-4" x1="109.08" y1="-1.5" x2="110.08" y2="-1.5" gradientTransform="translate(4135.1 60.38) rotate(180) scale(37.28)" gradientUnits="userSpaceOnUse"><stop offset="0" stop-color="#8b1878"/><stop offset="0.05" stop-color="#8b1878"/><stop offset="0.95" stop-color="#8b1878"/><stop offset="1" stop-color="#8b1878"/></linearGradient><clipPath id="clip-path-8" transform="translate(28.83 -2.07)"><rect class="cls-1" x="92.05" y="89.7" width="39.95" height="31.08"/></clipPath><clipPath id="clip-path-9" transform="translate(28.83 -2.07)"><path class="cls-1" d="M123.39,89.78,92.05,94.14l18.85,24.2a6.35,6.35,0,0,0,8.9,1.11,6.55,6.55,0,0,0,1.44-1.58L131,101a7.53,7.53,0,0,0-7.58-11.24"/></clipPath><linearGradient id="linear-gradient-5" x1="102.74" y1="-5.12" x2="103.74" y2="-5.12" gradientTransform="translate(-76.95 -3735.41) rotate(90) scale(37.15)" gradientUnits="userSpaceOnUse"><stop offset="0" stop-color="#c10b25"/><stop offset="0.05" stop-color="#c10b25"/><stop offset="0.95" stop-color="#c10b25"/><stop offset="1" stop-color="#c10b25"/></linearGradient><clipPath id="clip-path-10" transform="translate(28.83 -2.07)"><rect class="cls-1" x="52.53" y="33.28" width="33.06" height="37.15"/></clipPath><clipPath id="clip-path-11" transform="translate(28.83 -2.07)"><path class="cls-1" d="M54.13,45.46l19.45,25L85.12,42a6.36,6.36,0,0,0-3.5-8.28,6.15,6.15,0,0,0-2.08-.45H60.08a7.55,7.55,0,0,0-6,12.18"/></clipPath><linearGradient id="linear-gradient-6" x1="109.18" y1="-8.83" x2="110.18" y2="-8.83" gradientTransform="translate(425.36 4124.27) rotate(-90) scale(37.15)" gradientUnits="userSpaceOnUse"><stop offset="0" stop-color="#719f29"/><stop offset="0.05" stop-color="#719f29"/><stop offset="0.95" stop-color="#719f29"/><stop offset="1" stop-color="#719f29"/></linearGradient></defs><g class="cls-2"><g class="cls-3"><rect class="cls-4" x="-5.57" y="22" width="112.74" height="123.24" transform="translate(-6.17 34.53) rotate(-30)"/></g><g class="cls-5"><rect class="cls-6" x="79.11" y="31.2" width="95.56" height="88.62"/></g><g class="cls-7"><rect class="cls-8" x="22.49" y="59.72" width="113.97" height="128.68" transform="translate(-38.87 128.79) rotate(-60)"/></g><g class="cls-2"><path class="cls-9" d="M14.92,85.93a10,10,0,0,0,1.19,6.72l20.73,35.9a7.54,7.54,0,0,0,13.52-.94L62.36,98Z" transform="translate(28.83 -2.07)"/><g class="cls-10"><g class="cls-11"><rect class="cls-12" x="18.72" y="91.63" width="50.19" height="49.66" transform="translate(-23.37 35.25) rotate(-29.89)"/></g></g><g class="cls-13"><g class="cls-14"><rect class="cls-15" x="88.32" y="78.93" width="49.52" height="52.88" transform="translate(-5.88 148.55) rotate(-60)"/></g></g><g class="cls-16"><g class="cls-17"><rect class="cls-18" x="79.11" y="31.21" width="36.5" height="37.15"/></g></g><path class="cls-19" d="M166.71,61.27a1.39,1.39,0,0,1,.26-.86.87.87,0,0,1,.73-.33H172a.84.84,0,0,1,.76.33,1.5,1.5,0,0,1,.23.86V80.19h.43a11.77,11.77,0,0,0,4.55-.79,7.4,7.4,0,0,0,3-2.27,9.19,9.19,0,0,0,1.64-3.51,19.48,19.48,0,0,0,.49-4.56V61.4a1.24,1.24,0,0,1,.38-1,1.26,1.26,0,0,1,.88-.33h3.93a.79.79,0,0,1,.8.43,1.72,1.72,0,0,1,.22.83v8.35a18,18,0,0,1-1.62,7.94A13.6,13.6,0,0,1,183,83a13.74,13.74,0,0,1,4.84,5.44,17.83,17.83,0,0,1,1.7,8.1v8a1.69,1.69,0,0,1-.23.84.88.88,0,0,1-.83.41h-3.94a1.22,1.22,0,0,1-1.22-1.22V97.19a18.94,18.94,0,0,0-.5-4.57,9,9,0,0,0-1.63-3.52,7.45,7.45,0,0,0-3-2.26,11.22,11.22,0,0,0-4.55-.81h-.73v18.52a1.54,1.54,0,0,1-.22.88.83.83,0,0,1-.74.31h-4.21a1,1,0,0,1-.81-.31,1.39,1.39,0,0,1-.25-.88Z" transform="translate(28.83 -2.07)"/><path class="cls-19" d="M219.19,95.34a5.92,5.92,0,0,0,.37,2.08,6.11,6.11,0,0,0,1.06,1.74,5.21,5.21,0,0,0,1.62,1.17,5.32,5.32,0,0,0,4.18,0A5.05,5.05,0,0,0,228,99.16a5.78,5.78,0,0,0,1.42-3.82v-34a1.69,1.69,0,0,1,.22-.86.72.72,0,0,1,.71-.4h4.32a.75.75,0,0,1,.76.4,1.7,1.7,0,0,1,.2.86v34.3a11,11,0,0,1-.79,4.21,10.27,10.27,0,0,1-5.71,5.75,12.25,12.25,0,0,1-4.56.84,9.35,9.35,0,0,1-5-1.32,9.74,9.74,0,0,1-3.31-3.5,9.3,9.3,0,0,1-8.42,4.82,12.83,12.83,0,0,1-4.71-.84,10.83,10.83,0,0,1-3.6-2.33,10.19,10.19,0,0,1-2.26-3.43,11.06,11.06,0,0,1-.8-4.21V61.27a1.5,1.5,0,0,1,.22-.86.64.64,0,0,1,.58-.33h4.47a.74.74,0,0,1,.72.35,1.61,1.61,0,0,1,.2.84V95.34a5.94,5.94,0,0,0,.38,2.08,5.46,5.46,0,0,0,1.06,1.74,5,5,0,0,0,7.39,0,5.46,5.46,0,0,0,1.06-1.74,5.94,5.94,0,0,0,.38-2.08V61.27a1.5,1.5,0,0,1,.23-.86.69.69,0,0,1,.59-.33h4.46a.77.77,0,0,1,.73.35,1.61,1.61,0,0,1,.2.84Z" transform="translate(28.83 -2.07)"/><path class="cls-19" d="M243.83,61.27a1.31,1.31,0,0,1,.28-.86,1,1,0,0,1,.78-.33h17.88a.83.83,0,0,1,.63.25,1,1,0,0,1,.26.81v3.63a1,1,0,0,1-.26.79,1,1,0,0,1-.63.23h-12.7V79.63h10.24a1.16,1.16,0,0,1,.67.21.83.83,0,0,1,.32.78v3.65a.92.92,0,0,1-.32.79,1.09,1.09,0,0,1-.67.23H250.07V100.1h12.7a1.07,1.07,0,0,1,.67.21.8.8,0,0,1,.29.71v3.7a1,1,0,0,1-.29.79,1.07,1.07,0,0,1-.67.23H244.89a1,1,0,0,1-.81-.31,1.39,1.39,0,0,1-.25-.88Z" transform="translate(28.83 -2.07)"/><path class="cls-19" d="M292.38,104.49a1.74,1.74,0,0,1-.22.82.79.79,0,0,1-.77.43h-3.93a1.38,1.38,0,0,1-.89-.33,1.24,1.24,0,0,1-.4-1V97.65a18.48,18.48,0,0,0-.61-5.13,8.6,8.6,0,0,0-1.77-3.4A6.36,6.36,0,0,0,281,87.27a11.48,11.48,0,0,0-3.86-.58h-.63v18c0,.75-.33,1.12-1,1.12H271.2c-.66,0-1-.37-1-1.12V61.27a1.31,1.31,0,0,1,.28-.86,1,1,0,0,1,.78-.33h10.57a10.72,10.72,0,0,1,4.47.88,10.3,10.3,0,0,1,3.5,2.41A10.93,10.93,0,0,1,292.09,67a11.93,11.93,0,0,1,.83,4.46v4.49a10.2,10.2,0,0,1-.41,3,9.35,9.35,0,0,1-1.16,2.48,9.25,9.25,0,0,1-1.75,2,11.7,11.7,0,0,1-2.19,1.48A10.53,10.53,0,0,1,291.14,90a25,25,0,0,1,1.22,8.58Zm-15.92-38.7v16H281a5.85,5.85,0,0,0,4.31-1.43,5.4,5.4,0,0,0,1.4-3.92v-5a6.88,6.88,0,0,0-.36-2.3,5.11,5.11,0,0,0-1.06-1.78,4.63,4.63,0,0,0-1.68-1.15,5.45,5.45,0,0,0-2.22-.42Z" transform="translate(28.83 -2.07)"/><path class="cls-19" d="M322.83,104.49a1.85,1.85,0,0,1-.21.82.78.78,0,0,1-.78.43h-3.93a1.4,1.4,0,0,1-.89-.33,1.23,1.23,0,0,1-.39-1V97.65a18.87,18.87,0,0,0-.61-5.13,8.6,8.6,0,0,0-1.77-3.4,6.47,6.47,0,0,0-2.84-1.85,11.48,11.48,0,0,0-3.86-.58h-.63v18c0,.75-.33,1.12-1,1.12h-4.25c-.66,0-1-.37-1-1.12V61.27a1.31,1.31,0,0,1,.28-.86,1,1,0,0,1,.78-.33h10.56a10.72,10.72,0,0,1,4.47.88,10.2,10.2,0,0,1,3.5,2.41,10.8,10.8,0,0,1,2.3,3.61,11.92,11.92,0,0,1,.82,4.46v4.49a9.88,9.88,0,0,1-.41,3,9.36,9.36,0,0,1-2.9,4.46,12.64,12.64,0,0,1-2.2,1.48,10.48,10.48,0,0,1,3.73,5.06,24.71,24.71,0,0,1,1.22,8.58Zm-15.91-38.7v16h4.52a5.85,5.85,0,0,0,4.33-1.45,5.35,5.35,0,0,0,1.4-3.92v-5a6.88,6.88,0,0,0-.36-2.3,4.75,4.75,0,0,0-1-1.76,4.63,4.63,0,0,0-1.68-1.15,5.57,5.57,0,0,0-2.21-.42Z" transform="translate(28.83 -2.07)"/><path class="cls-19" d="M331.13,61.27a1.45,1.45,0,0,1,.25-.86.86.86,0,0,1,.74-.33h4.26a.87.87,0,0,1,.75.33,1.37,1.37,0,0,1,.24.86v43.28a1.44,1.44,0,0,1-.23.88.9.9,0,0,1-.76.31h-4.26a.91.91,0,0,1-.76-.31,1.53,1.53,0,0,1-.23-.88Z" transform="translate(28.83 -2.07)"/><path class="cls-19" d="M346,61.27a1.31,1.31,0,0,1,.28-.86.92.92,0,0,1,.77-.33H365a.83.83,0,0,1,.63.25,1,1,0,0,1,.26.81v3.63a1,1,0,0,1-.26.79,1,1,0,0,1-.63.23H352.25V79.63h10.23a1.19,1.19,0,0,1,.68.21.86.86,0,0,1,.31.78v3.65a.9.9,0,0,1-.31.79,1.09,1.09,0,0,1-.68.23H352.25V100.1H365a1,1,0,0,1,.66.21.8.8,0,0,1,.3.71v3.7a1,1,0,0,1-.3.79,1,1,0,0,1-.66.23H347.06a1,1,0,0,1-.81-.31,1.45,1.45,0,0,1-.24-.88Z" transform="translate(28.83 -2.07)"/></g><path class="cls-20" d="M176.77,132.74a5.36,5.36,0,0,1-.64,2.77,4.12,4.12,0,0,1-1.75,1.66,5.88,5.88,0,0,1-2.55.55,5.65,5.65,0,0,1-2.52-.55,4.16,4.16,0,0,1-1.74-1.66,5.59,5.59,0,0,1-.64-2.77v-9.17l.13-.13h.58a.63.63,0,0,1,.61.24,1.55,1.55,0,0,1,.13.71v8.33a4,4,0,0,0,.92,2.83,3.76,3.76,0,0,0,5.11,0,4,4,0,0,0,.92-2.83v-9.21a1.71,1.71,0,0,1,.32,0h1.12Z" transform="translate(28.83 -2.07)"/><path class="cls-20" d="M185.83,123.51a2.94,2.94,0,0,1,.42,0h1.35l-.41,1.76h-.14a12.65,12.65,0,0,0,0,1.33,14.81,14.81,0,0,1,0,1.49v9.39h-1.34Zm2.7,4.55c-.27-.49-.51-1-.74-1.42s-.46-.92-.68-1.38l-.69-.89,1.18-.86,5.1,9.41q.41.72.75,1.47l.68,1.4.69.68-1.19,1Zm6.88-4.51v13.92h-1.78l.42-1.68h.14a13.13,13.13,0,0,0-.06-1.52,13.53,13.53,0,0,1,0-1.56v-8.32a1.55,1.55,0,0,1,.13-.71c.08-.15.29-.24.61-.24h.48Z" transform="translate(28.83 -2.07)"/><path class="cls-20" d="M204.71,123.51h1.45v14h-1.45Z" transform="translate(28.83 -2.07)"/><path class="cls-20" d="M216.88,137.47h-1.44V123.63l.12-.12h1.3v4.17Zm6.35-14a1,1,0,0,1,.08.29,1.6,1.6,0,0,1,0,.31.6.6,0,0,1-.21.51,1.33,1.33,0,0,1-.68.15h-4.88a7.59,7.59,0,0,1-1.22-.06v-1.16Zm-1,6.26a.83.83,0,0,0,.05.34c.05.12,0,.21,0,.29v.28a.83.83,0,0,1-.05.34h-5.91v-1.2h5.92Z" transform="translate(28.83 -2.07)"/><path class="cls-20" d="M231.12,123.51h1.44v14h-1.44Z" transform="translate(28.83 -2.07)"/><path class="cls-20" d="M241.84,123.63l.12-.12h1.26v14h-.56a.79.79,0,0,1-.6-.25,1.18,1.18,0,0,1-.22-.72Zm8-.12a1.6,1.6,0,0,1,0,.31,1.22,1.22,0,0,1,0,.27v.31a1.59,1.59,0,0,1-.08.35h-7v-1.24Zm-1,6.26V131h-6v-1.2h6Zm1.36,6.44a1.61,1.61,0,0,1-.22,1,1,1,0,0,1-.74.25h-6.47v-1.19l.78-.06h6.65Z" transform="translate(28.83 -2.07)"/><path class="cls-20" d="M268.13,130.5a17.61,17.61,0,0,1-.15,2.29,7.1,7.1,0,0,1-.6,2,5.41,5.41,0,0,1-1.32,1.69,3.6,3.6,0,0,1-1,.6,7.43,7.43,0,0,1-1.25.34,8.78,8.78,0,0,1-1.15.11h-4.07l-.12-.12V123.63l.12-.12h4.07a6.31,6.31,0,0,1,1.15.11,5.92,5.92,0,0,1,1.25.34,3.17,3.17,0,0,1,1,.6,5.17,5.17,0,0,1,1.31,1.7,6.92,6.92,0,0,1,.61,2A16.74,16.74,0,0,1,268.13,130.5Zm-1.52,0a13.36,13.36,0,0,0-.15-2,6.14,6.14,0,0,0-.55-1.89,3.22,3.22,0,0,0-1.2-1.38,3.9,3.9,0,0,0-2.11-.52h-2.73v11.56h2.73a3.9,3.9,0,0,0,2.11-.53,3.34,3.34,0,0,0,1.2-1.38,6.31,6.31,0,0,0,.55-1.89A13.17,13.17,0,0,0,266.61,130.5Z" transform="translate(28.83 -2.07)"/><path class="cls-20" d="M286.21,123.51a1.71,1.71,0,0,1,.32,0h1.12v14h-1.44Z" transform="translate(28.83 -2.07)"/><path class="cls-20" d="M296.94,123.51h1.76l-.41,1.76h-.14a12.65,12.65,0,0,0,.05,1.33c.05.49,0,1,.05,1.49a14.22,14.22,0,0,1,0,1.46v7.93h-1.33Zm2.69,4.55-.74-1.42-.68-1.37-.68-.89,1.17-.86,5.07,9.4c.26.49.51,1,.74,1.47s.46,1,.69,1.4l.68.68-1.18,1Zm6.89-4.51v13.92h-1.78l.42-1.68h.14a13.13,13.13,0,0,0-.06-1.52c-.06-.52,0-1-.05-1.56a14.59,14.59,0,0,1,0-1.48v-6.84a1.69,1.69,0,0,1,.12-.71.63.63,0,0,1,.61-.24h.48Z" transform="translate(28.83 -2.07)"/><path class="cls-20" d="M315.86,123.51h3.93a5.38,5.38,0,0,1,2.5.49,2.93,2.93,0,0,1,1.35,1.3,4.28,4.28,0,0,1,.41,1.9,3.13,3.13,0,0,1-.34,1.46,2.93,2.93,0,0,1-1,1.1,3.33,3.33,0,0,1-1.5.52V130a3.13,3.13,0,0,1,1.66.47,3.64,3.64,0,0,1,1.83,3.23,4.12,4.12,0,0,1-.44,1.84A3.47,3.47,0,0,1,322.8,137a5.89,5.89,0,0,1-2.83.59h-4.18l-.12-.12V123.63Zm1.32,12.82h3a4,4,0,0,0,1.56-.27,2.18,2.18,0,0,0,.92-.69,2.41,2.41,0,0,0,.44-.91,3.56,3.56,0,0,0,.12-.91,2.89,2.89,0,0,0-.28-1.2,2.45,2.45,0,0,0-1-1.11,3.5,3.5,0,0,0-2-.46h-3.38v-1.27h3.21a3.35,3.35,0,0,0,1.73-.38,2,2,0,0,0,.81-.94,3,3,0,0,0,.21-1.1,3.57,3.57,0,0,0-.19-1.13,1.71,1.71,0,0,0-.77-.92,3.25,3.25,0,0,0-1.73-.37h-2.66Z" transform="translate(28.83 -2.07)"/><path class="cls-20" d="M332.09,130.48a10.82,10.82,0,0,1,.59-3.62,5.85,5.85,0,0,1,1.81-2.59,5.12,5.12,0,0,1,7.2,1.13,7.15,7.15,0,0,1,1,2.3,10.92,10.92,0,0,1,.33,2.79,10.47,10.47,0,0,1-.59,3.63,5.92,5.92,0,0,1-1.81,2.63,4.78,4.78,0,0,1-3.07,1,5,5,0,0,1-2.44-.57,4.92,4.92,0,0,1-1.7-1.57,7.08,7.08,0,0,1-1-2.31A11.68,11.68,0,0,1,332.09,130.48Zm1.52,0a12.06,12.06,0,0,0,.18,2.07,7,7,0,0,0,.6,1.94,3.92,3.92,0,0,0,1.2,1.45,3.8,3.8,0,0,0,3.93,0,3.71,3.71,0,0,0,1.19-1.45,6.72,6.72,0,0,0,.6-1.94,12,12,0,0,0,.17-2.07,11.85,11.85,0,0,0-.17-2.06,6.53,6.53,0,0,0-.6-1.94,3.48,3.48,0,0,0-1.19-1.44,3.76,3.76,0,0,0-3.93,0,3.58,3.58,0,0,0-1.2,1.44,6.84,6.84,0,0,0-.6,1.94A11.86,11.86,0,0,0,333.61,130.48Z" transform="translate(28.83 -2.07)"/><path class="cls-20" d="M358.14,123.51l.26-.06h.33a1.62,1.62,0,0,1,.44,0,.67.67,0,0,1,.31.1l.06.12-4.15,6.66-.6.6-4,6.52a1.36,1.36,0,0,1-.29.06h-.35a3.15,3.15,0,0,1-.43,0,1.19,1.19,0,0,1-.32-.1v-.12l4.67-7.47.61-.63Zm-8.18.22a1.41,1.41,0,0,1,.5-.26,1.36,1.36,0,0,1,.48-.09.86.86,0,0,1,.46.14,1.11,1.11,0,0,1,.44.47L360,137.27a1.83,1.83,0,0,1-.5.26,1.86,1.86,0,0,1-.48.09,1.07,1.07,0,0,1-.46-.14,1.41,1.41,0,0,1-.44-.47Z" transform="translate(28.83 -2.07)"/></g></svg>